PathFileType	4	(X/Y/Z)	C:/Users/beibeiliu/ov580/test_trc/User2\sequence.27_training_dense_right.trc
DataRate	CameraRate	NumFrames	NumMarkers	Units	OrigDataRate	OrigDataStartFrame	OrigNumFrames
120	120	20	19	mm	120	1	72
Frame#	Time	ThumbCMC			ThumbMCP			ThumbIP			ThumbTip			IndexMCP			IndexPIP			IndexTip			MiddleMCP			MiddlePIP			MiddleTip			RingMCP			RingPIP			RingTip			PinkyMCP			PinkyPIP			PinkyTip			BackHand1			BackHand2			BackHand3	
		X0	Y0	Z0	X1	Y1	Z1	X2	Y2	Z2	X3	Y3	Z3	X4	Y4	Z4	X5	Y5	Z5	X6	Y6	Z6	X7	Y7	Z7	X8	Y8	Z8	X9	Y9	Z9	X10	Y10	Z10	X11	Y11	Z11	X12	Y12	Z12	X13	Y13	Z13	X14	Y14	Z14	X15	Y15	Z15	X16	Y16	Z16	X17	Y17	Z17	X18	Y18	Z18	
0	0	141.656	61.301	-30.2082	149.335	84.0648	-54.7468	144.252	105.367	-82.117	141.798	122.122	-98.0706	89.8639	69.8956	-99.2377	73.2981	83.1537	-121.385	62.3916	93.685	-140.515	71.0086	55.8008	-99.7672	59.6112	71.0764	-121.835	43.3253	79.2417	-147.883	44.089	44.4844	-78.3746	22.0621	55.0016	-90.1916	-2.68523	65.346	-103.535	39.259	34.9871	-58.2755	17.0197	43.9954	-69.0921	-1.89824	49.9574	-80.1182	88.8522	18.442	-46.1189	112.378	4.79996	-23.9836	125.744	32.9376	-45.915	
1	0.00833333	151.174	52.7667	-41.0806	161.214	68.1491	-60.2247	160.42	88.2703	-92.6922	165.804	104.962	-108.123	101.151	64.4794	-105.496	90.0887	76.9365	-130.39	73.9929	86.2087	-151.488	83.6082	55.3864	-104.829	71.0458	69.9519	-132.995	57.3073	76.6154	-158.299	51.8732	52.9458	-85.8299	30.8452	61.523	-91.948	11.0716	78.1027	-111.353	46.0291	45.6496	-61.5555	24.3596	57.5795	-74.5299	8.82182	68.438	-89.7453	90.3568	20.5853	-47.9264	109.713	4.69201	-24.3661	128.479	26.5888	-52.3259	
2	0.0166667	160.543	44.894	-40.4136	167.58	59.1783	-66.673	172.871	75.9019	-98.3533	174.61	89.7182	-116.176	109.617	55.465	-111.635	102.967	65.8108	-134.485	87.1118	72.806	-157.168	90.4899	49.2918	-115.186	81.8958	59.6833	-140.257	68.1741	65.0211	-168.164	58.1975	47.6826	-90.0872	42.5513	59.8441	-102.42	21.4356	74.3968	-120.076	51.8807	44.339	-69.7022	33.648	56.8117	-80.2631	19.6823	65.0185	-96.2241	93.1659	17.7416	-51.6653	107.997	1.52404	-27.2174	131.962	18.9397	-52.8219	
3	0.025	164.484	42.2385	-45.3083	175.032	54.784	-67.7224	176.289	68.9184	-102.918	180.979	82.8125	-122.003	120.426	43.414	-115.749	109.721	51.7036	-144.282	95.2356	54.6777	-165.682	96.315	32.5774	-118.144	87.5382	41.0763	-147.316	76.9232	44.0674	-173.562	66.3133	32.6877	-100.028	46.6935	42.1949	-114.461	29.7519	54.4726	-132.996	59.365	30.6138	-76.1719	42.6249	40.7806	-88.9811	23.7834	46.954	-109.697	103.249	8.39664	-56.5857	116.714	-2.6275	-25.9151	140.369	15.9589	-58.0082	
4	0.0333333	167.358	45.1453	-47.4936	173.181	58.3287	-69.2822	176.095	70.9796	-103.322	175.96	83.6482	-125.357	127.708	31.3046	-122.174	121.812	36.2688	-146.007	106.688	35.8008	-170.269	114.234	18.4019	-119.944	102.768	23.0024	-152.803	95.702	22.0525	-178.609	82.5656	10.1155	-102.724	61.2898	15.1702	-125.292	41.3913	19.6781	-145.74	71.0089	6.56161	-80.5083	51.7307	11.7287	-102.92	35.7234	14.493	-121.365	117.175	-2.73113	-55.8256	128.621	-12.2179	-26.9235	148.506	9.97267	-53.3583	
5	0.0416667	158.434	53.0098	-47.7442	159.437	66.2815	-68.9597	160.433	80.345	-98.4683	158.296	91.2613	-122.068	138.017	28.1511	-123.378	128.339	24.0012	-150.075	122.764	25.7217	-178.801	127.827	5.66269	-122.961	119.645	5.26501	-153.335	115.445	5.23297	-181.844	101.534	-12.6331	-111.901	83.5681	-18.7133	-129.415	66.6693	-16.2972	-152.682	89.0936	-22.0787	-90.0722	75.7854	-21.9327	-109.026	58.4914	-28.7884	-132.56	130.357	-13.9441	-59.3777	144.943	-12.2555	-30.9321	156.354	13.4121	-56.8971	
6	0.05	148.312	55.2719	-46.3797	151.585	74.3078	-68.0517	149.631	87.7038	-102.219	143.409	97.6982	-122.73	140.926	26.0557	-124.563	136.185	25.6776	-153.009	129.579	16.3159	-177.841	138.818	5.39143	-125.864	131.935	2.64607	-155.167	129.516	-1.85016	-185.363	116.844	-25.6942	-113.377	102.92	-33.3802	-132.959	88.4873	-38.5749	-156.508	109.137	-32.1925	-91.7372	93.5047	-42.6447	-113.971	83.5536	-50.5058	-137.825	145.364	-12.0019	-58.7131	154.961	-7.02714	-29.3257	159.377	20.7418	-56.3542	
7	0.0583333	142.425	59.56	-41.7187	142.836	77.4819	-67.2764	138.581	89.1467	-100.368	132.28	96.7047	-124.538	145.976	29.6497	-125.523	140.69	23.1478	-153.934	139.926	18.0636	-180.669	146.911	4.86742	-127.524	142.821	2.68113	-156.684	144.907	-4.91979	-188.545	132.582	-27.8868	-115.049	123.052	-38.4706	-135.76	115.316	-42.5916	-160.502	128.012	-36.2881	-92.0398	118.181	-45.4812	-114.106	114.236	-58.9348	-137.867	156.277	-9.02904	-62.6146	163.092	-2.12496	-26.4268	162.561	29.3049	-52.7981	
8	0.0666667	134.538	54.8168	-45.2548	130.017	75.5195	-66.1526	125.602	84.2578	-97.8043	118.639	92.602	-121.637	152.345	31.7169	-124.891	151.824	29.409	-151.345	153.732	23.011	-174.698	162.273	10.7688	-124.931	160.965	8.13351	-157.833	164.64	6.39537	-181.699	158.557	-19.0798	-113.324	153.548	-30.8038	-136.001	152.424	-41.6594	-165.368	154.698	-35.882	-94.7711	149.291	-44.2377	-119.555	150.499	-57.3571	-138.573	170.617	-5.63176	-58.3904	171.669	1.63462	-26.5763	162.937	32.6215	-48.6546	
9	0.075	122.998	50.856	-39.2706	114.335	66.7353	-65.526	109.83	76.8585	-96.5737	103.765	83.6261	-121.436	158.577	39.021	-120.921	157.206	41.0137	-145.161	165.178	37.1172	-174.687	172.571	28.0402	-123.77	176.443	25.7353	-153.922	182.76	28.6414	-178.263	182.162	-5.43814	-111.024	183.728	-14.0299	-135.265	188.738	-21.0917	-163.678	183.696	-24.7822	-93.6819	184.541	-30.7361	-118.94	190.301	-34.7357	-141.845	176.712	9.82558	-53.871	177.261	11.5019	-24.3929	162.146	38.622	-43.6862	
10	0.0833333	114.352	38.3238	-41.808	99.1378	54.9333	-66.6141	90.612	65.2343	-97.5854	86.0141	69.4678	-121.556	152.546	51.6387	-112.746	157.062	56.2245	-143.888	168.698	56.4485	-165.969	174.765	44.9377	-116.49	182.008	49.0042	-143.17	188.678	56.854	-171.682	197.329	16.9042	-108.021	205.134	13.1704	-129.687	214.232	10.6755	-157.565	202.136	-1.91842	-88.8473	208.942	-2.80315	-113.83	220.859	-2.46956	-139.171	177.663	23.4663	-47.8365	173.669	24.2408	-16.3507	150.204	41.8859	-40.1651	
11	0.0916667	102.329	35.33	-35.8134	90.7147	48.3667	-60.6908	79.5616	63.4391	-95.3386	71.1712	69.4272	-118.479	140.851	61.3045	-110.989	148.027	67.4176	-137.601	156.247	73.4307	-163.614	161.97	57.7228	-108.824	170.482	66.7493	-139.247	174.764	78.6263	-165.474	191.543	33.9482	-103.406	202.298	31.8159	-124.948	212.361	34.5946	-154.859	196.721	18.1198	-89.3883	210.582	17.7424	-112.051	222.455	19.7961	-132.525	173.928	32.6867	-49.3084	165.668	30.0056	-15.5982	137.923	48.182	-41.288	
12	0.1	90.4074	37.3736	-32.1293	77.7587	49.5423	-55.6917	65.3725	61.1015	-84.8993	57.3265	67.9638	-108.409	126.644	65.7965	-109.387	132.589	70.3387	-134.022	135.6	77.4477	-156.628	147.996	63.2895	-110.995	156.552	70.303	-139.543	160.778	82.1178	-163.217	177.223	38.5841	-104.391	190.383	37.1018	-127.065	196.356	43.5717	-153.43	186.67	21.7327	-87.9009	195.016	23.8644	-110.949	206.137	29.1074	-132.394	161.493	37.4444	-46.4528	155.927	31.1854	-15.1714	127.081	50.3923	-33.9794	
13	0.108333	84.9526	32.8181	-31.917	66.3172	45.3873	-53.5518	55.7722	56.4075	-82.8553	43.9142	61.0866	-103.761	116.451	57.2217	-105.678	119.844	63.7254	-132.97	123.731	72.1348	-161.095	139.753	55.3959	-106.731	141.898	63.44	-135.9	146.78	76.725	-166.18	167.269	32.3473	-104.864	170.941	33.643	-127.07	182.235	35.4528	-150.754	174.918	15.372	-85.2375	183.663	17.6128	-112.881	189.735	23.4415	-131.142	150.087	32.6827	-43.4836	147.702	29.6918	-15.2896	116.734	47.6397	-32.6407	
14	0.116667	74.0899	28.3317	-30.708	53.528	38.7265	-50.7928	43.4019	46.8273	-82.0864	31.7317	52.5537	-107.167	103.333	48.7214	-110.35	107.308	50.1706	-137.439	108.05	54.7541	-162.006	123.486	45.2474	-110.23	129.133	49.1491	-138.033	130.716	59.251	-169.552	155.978	20.715	-103.991	162.971	19.4906	-130.453	169.499	19.8886	-157.589	162.608	5.96014	-86.0007	173.114	4.12286	-109.02	180.207	8.96148	-135.158	144.088	25.6304	-45.0224	137.337	27.438	-13.5264	108.571	40.8923	-37.2074	
15	0.125	64.477	24.206	-29.638	46.241	28.3954	-50.6599	30.5848	33.4635	-80.3956	18.955	33.4468	-101.662	90.0136	30.8528	-111.598	89.9864	28.3798	-139.916	91.0999	28.747	-165.067	112.077	27.036	-114.969	110.41	27.9567	-144.802	112.404	31.7575	-171.876	140.326	5.34852	-106.75	151.083	-3.34547	-125.212	156.467	-8.49483	-155.109	153.069	-7.4274	-85.4354	160.171	-14.3475	-108.416	166.224	-14.4577	-133.011	136.64	19.7215	-44.6649	133.755	24.487	-16.2235	99.69	34.4222	-35.3363	
16	0.133333	62.2866	19.3164	-26.8985	39.4427	24.3765	-49.515	25.8575	23.1236	-81.4563	8.8902	22.0575	-99.5423	79.3696	11.8749	-112.475	75.4462	5.26501	-137.163	79.4347	-1.19966	-165.199	100.818	8.38583	-112.379	97.6647	1.428	-141.421	101.713	-1.67769	-170.987	128.618	-14.1082	-101.01	134.261	-30.0537	-125.176	137.601	-40.691	-151.447	143.622	-22.2743	-80.721	146.128	-35.1609	-107.919	151.043	-40.948	-131.015	128.672	13.5252	-46.2492	128.917	22.9679	-15.5267	95.3666	29.1777	-36.4983	
17	0.141667	63.592	28.7468	-27.4933	44.3937	30.5505	-50.1835	23.7994	32.5437	-75.4099	8.49898	31.8633	-91.4765	75.162	1.62176	-110.529	68.8225	-8.32301	-133.161	65.6543	-18.076	-156.859	94.5439	-7.28091	-113.666	87.5803	-16.8964	-141.194	82.6347	-21.331	-168.372	116.209	-30.5451	-101.387	118.384	-51.7926	-120.452	113.302	-63.8741	-141.899	129.276	-38.0466	-82.4971	128.117	-55.6202	-102.632	132.147	-65.7789	-121.418	128.739	5.08969	-48.5784	131.558	19.6717	-17.5536	95.7518	29.8417	-39.494	
18	0.15	74.4204	48.6884	-22.4461	55.1936	54.4385	-47.4315	33.5255	59.3678	-71.3222	16.806	62.4288	-88.7453	69.5616	13.2815	-104.674	60.6614	1.7254	-125.956	53.3793	-12.4662	-152.779	84.2834	-2.48453	-111.097	76.3166	-14.7789	-132.105	68.6893	-24.4952	-162.979	105.108	-33.4695	-93.5794	95.2363	-49.7169	-111.424	83.6843	-67.1906	-134.272	113.209	-41.8172	-75.1343	101.812	-60.4031	-95.9159	98.7957	-73.2771	-110.507	124.24	3.93453	-50.8097	132.853	16.8173	-20.9596	107.055	34.3302	-41.099	
19	0.158333	93.1655	65.7855	-24.8852	77.0231	76.8785	-46.4121	57.208	86.9458	-68.3439	39.6828	96.1401	-86.3996	71.1082	30.9344	-99.1435	55.5114	23.4373	-122.185	42.045	15.9341	-143.779	79.4311	6.10744	-107.293	62.8854	0.501911	-129.434	50.4582	-5.39386	-157.343	83.8537	-25.1873	-92.4588	68.3654	-35.7675	-107.593	50.4102	-51.2015	-127.535	91.7622	-33.2629	-69.7953	75.4488	-48.8092	-85.8869	62.8762	-58.7218	-106.954	120.606	5.195	-51.8764	137.374	13.4334	-24.5492	118.15	40.3622	-39.6992	
